<?xml version="1.0" encoding="utf-8"?><!-- Uploaded to: SVG Repo, www.svgrepo.com, Generator: SVG Repo Mixer Tools -->
<svg fill="#000000" width="800px" height="800px" viewBox="0 0 24 24" id="mushroom" data-name="Flat Line" xmlns="http://www.w3.org/2000/svg" class="icon flat-line"><path id="secondary" d="M12,3h0a8,8,0,0,1,8,8v0a1,1,0,0,1-1,1H5a1,1,0,0,1-1-1v0A8,8,0,0,1,12,3Z" style="fill: rgb(44, 169, 188); stroke-width: 2;"></path><path id="primary" d="M14.67,18A2.68,2.68,0,0,1,12,21h0a2.68,2.68,0,0,1-2.67-3L10,12h4ZM20,11h0a8,8,0,0,0-8-8h0a8,8,0,0,0-8,8H4a1,1,0,0,0,1,1H19A1,1,0,0,0,20,11Z" style="fill: none; stroke: rgb(0, 0, 0); stroke-linecap: round; stroke-linejoin: round; stroke-width: 2;"></path></svg>